<?xml version="1.0" standalone="no"?>
<!DOCTYPE svg PUBLIC "-//W3C//DTD SVG 1.0//EN" "http://www.w3.org/TR/2001/REC-SVG-20010904/DTD/svg10.dtd">
<svg xmlns="http://www.w3.org/2000/svg" xmlns:xlink="http://www.w3.org/1999/xlink" id="body_1" width="1024" height="768">

<g transform="matrix(0.17066666 0 0 0.17066666 -0 42.666668)">
    <path d="M5520.3 1875.5L286.35 1875.5C 145.42001 1783.31 116.45001 1549.86 192.03 1342.27C 294.08 1062 586.7 828.83 1051.67 1054C 1052.0801 1054.2 1052.5 1054.39 1052.91 1054.6C 948.60004 828.6 1271.2001 528.75 1641.28 540.14996C 1806.03 545.23 1980.2001 611.99 2130.28 774.42993C 2532.44 50.71991 3721.35 347.35992 4081.4302 824.67993C 4292.37 702.87994 4577.43 678.67993 4818.43 769.31995C 5047.0303 855.31995 5235.85 1044.6799 5283.77 1352.19C 5285.0635 1360.49 5286.2534 1368.8799 5287.34 1377.36C 5391.82 1481.89 5475.18 1665.93 5520.3 1875.5z" stroke="none" fill="#A0D5FD" fill-rule="nonzero" />
    <path d="M5283.73 1352.2C 5125.19 1445.9 4974 1635.51 4974 1635.51C 4974 1635.51 4950.76 1511.58 4815.2 1482.51C 4679.6406 1453.4401 4648.68 1608.0701 4648.68 1608.0701C 4648.68 1608.0701 4517 1379.91 4343 1409.16C 4169 1438.41 4071.71 1565.79 4071.71 1565.79C 4071.71 1565.79 4013.63 1376.04 3829.71 1358.6101C 3645.79 1341.1802 3580.71 1468.9901 3580.71 1468.9901C 3622.31 1161.2301 4136.5 1179.3401 4269.25 1255.9901C 4269.25 1186.2902 4337.02 1118.5201 4451.25 1209.5201C 4451.25 1089.5201 4523.41 932.1101 4699.1 1107.8002C 4699.1 965.3302 4750.52 854.10016 4818.44 769.3402C 5047 855.31 5235.81 1044.69 5283.73 1352.2z" stroke="none" fill="#6FC0FD" fill-rule="nonzero" />
    <path d="M3700.86 1887.23C 3700.86 1887.23 4026.1702 1803 4296.29 1788.48C 4566.41 1773.96 4682.59 1785.57 4766.82 1785.57C 4851.05 1785.57 5446.48 1614.21 5446.48 1614.21C 5446.48 1614.21 5542.33 1898.85 5513.29 1898.85C 5484.25 1898.85 3700.86 1887.23 3700.86 1887.23z" stroke="none" fill="#608010" fill-rule="nonzero" />
    <path d="M4491.88 1561.92C 4471.3 1561.92 4467.4 1599.6001 4467.4 1599.6001C 4467.4 1599.6001 4402.7197 1786.6001 4448 1812.6901C 4461.484 1820.3807 4476.434 1825.1506 4491.88 1826.6901L4491.88 1826.6901L4491.88 1885.6901L4502.81 1885.6901L4498.94 1827.13C 4527.9897 1828.13 4551.85 1817.03 4551.85 1799.61C 4551.85 1772.41 4512.47 1561.92 4491.88 1561.92z" stroke="none" fill="#9BC231" fill-rule="nonzero" />
    <path d="M4791.11 1471.2C 4764.76 1471.2 4759.77 1519.44 4759.77 1519.44C 4759.77 1519.44 4676.96 1758.75 4734.94 1792.22C 4752.1426 1802.0696 4771.2197 1808.2017 4790.94 1810.22C 4792.08 1836.84 4794.36 1880.01 4797.23 1880.01L4797.23 1880.01L4803.47 1880.01L4800.2803 1810.86C 4837.4204 1812.15 4867.9204 1797.92 4867.9204 1775.64C 4867.88 1740.66 4817.46 1471.2 4791.11 1471.2z" stroke="none" fill="#779918" fill-rule="nonzero" />
    <path d="M5165.53 1761.75C 5165.53 1784.01 5135.09 1798.23 5098.02 1796.98C 5096.49 1796.9199 5094.96 1796.85 5093.41 1796.74L5093.41 1796.74L5093.5703 1799.74L5093.8604 1805.05L5097.97 1881.51L5089.6504 1880.41C 5084.1406 1879.66 5084.72 1834.7101 5085.74 1804.5701C 5085.74 1803.89 5085.74 1803.2401 5085.81 1802.5701C 5085.89 1800.29 5085.97 1798.1101 5086.0503 1796.06C 5067.2236 1793.8119 5049.04 1787.8029 5032.58 1778.39C 4974.58 1744.91 5057.41 1505.61 5057.41 1505.61C 5057.41 1505.61 5061.16 1469.38 5079.31 1459.72C 5082.2124 1458.1638 5085.457 1457.3561 5088.75 1457.37C 5115.11 1457.36 5165.53 1726.81 5165.53 1761.75z" stroke="none" fill="#9BC231" fill-rule="nonzero" />
    <path d="M286.35 1875.51C 281.80103 1904.6208 279.55066 1934.0459 279.62 1963.51C -5.0899963 2248.22 249.41 2952.04 731.82 2909.77C 793.13 3179.53 1042.95 3346.04 1326.8201 3231.88C 1621.5701 3622.7898 2431.4302 3683.22 3010.7202 3428.96C 3604.0903 3923.03 5017.8403 3618.43 5253.04 2970.96C 5554.42 2755.89 5605.2803 2270.31 5520.27 1875.4099L5520.27 1875.4099L286.35 1875.51z" stroke="none" fill="#93C74B" fill-rule="nonzero" />
    <path d="M2451.49 1875.5L286.35 1875.5C 244.15001 1847.91 211.99 1807.64 189.68001 1759.19C 137.44 1645.84 139.07 1487.71 192.03001 1342.2699C 396.59003 1332.58 869.87006 1355.2699 1095.7 1739.5698C 1096.9199 1741.6598 1098.1499 1743.7598 1099.37 1745.8799C 1102.8633 1743.8799 1106.3433 1741.8799 1109.8099 1739.8799C 1437.8099 1555.3499 1708.6699 1631.6499 1784.1099 1821.3398C 1976.18 1629.33 2451.49 1875.5 2451.49 1875.5z" stroke="none" fill="#6ABEFD" fill-rule="nonzero" />
    <path d="M478.46 1285.31C 452.09998 1285.31 447.11 1333.55 447.11 1333.55C 447.11 1333.55 364.31 1572.8601 422.28998 1606.3301L422.28998 1606.3301L422.28998 1681.92L436.28998 1681.92L431.34998 1606.92C 468.52997 1608.24 499.08 1593.99 499.08 1571.7001C 555.23 1554.77 504.81 1285.31 478.46 1285.31zM1343.48 1565.8C 1324.62 1565.8 1321.0499 1600.3201 1321.0499 1600.3201C 1321.0499 1600.3201 1261.7799 1771.6201 1303.2799 1795.5701L1303.2799 1795.5701L1303.2799 1849.67L1313.2799 1849.67L1309.7399 1796.01C 1336.3599 1796.96 1358.2299 1786.76 1358.2299 1770.8C 1398.44 1758.67 1362.35 1565.8 1343.48 1565.8z" stroke="none" fill="#9BC231" fill-rule="nonzero" />
    <path d="M747.41 1472.85C 731.89996 1472.85 728.95996 1501.24 728.95996 1501.24C 728.95996 1501.24 680.22 1642.09 714.35 1661.79C 724.469 1667.5801 735.6911 1671.1812 747.29 1672.36C 747.94995 1688.02 749.29 1713.4299 750.99 1713.4299L750.99 1713.4299L754.66 1713.4299L752.77997 1672.73C 774.63995 1673.5 792.58997 1665.11 792.58997 1652C 792.59 1631.44 762.92 1472.85 747.41 1472.85z" stroke="none" fill="#779918" fill-rule="nonzero" />
    <path d="M969.73 1658.09C 969.73 1677.2999 943.45996 1689.57 911.45996 1688.5C 910.14996 1688.5 908.81995 1688.39 907.45996 1688.3L907.45996 1688.3L907.6 1690.8501L907.83997 1695.4401L911.39996 1761.4401L904.20996 1760.4401C 899.44995 1759.79 899.95996 1720.9901 900.83997 1694.9901C 900.83997 1694.4001 900.83997 1693.8401 900.83997 1693.2701C 900.91 1691.2701 900.99 1689.4302 901.05994 1687.6602C 884.8447 1685.7178 869.1831 1680.5459 855 1672.45C 805 1643.56 876.42 1437 876.42 1437C 876.42 1437 879.64996 1405.73 895.32 1397.4C 897.82684 1396.0629 900.6289 1395.3752 903.47003 1395.4C 926.22 1395.4 969.73 1628 969.73 1658.09z" stroke="none" fill="#9BC231" fill-rule="nonzero" />
    <path d="M1702.77 1875.5L286.35 1875.5C 244.15001 1847.91 211.99 1807.64 189.68001 1759.19C 310.5 1721.8799 549.07 1664.11 768.26 1705.19C 887.57 1727.5599 979.55 1742.19 1052.13 1806.34C 1131.33 1882.39 1445 1862.06 1702.77 1875.5z" stroke="none" fill="#608010" fill-rule="nonzero" />
    <path d="M2383.17 1763.31C 2383.17 1596.77 2212.78 1523.2001 2081.1099 1565.79C 2081.1099 1395.4 1802.2699 1360.54 1709.3198 1484.4701C 1643.4899 1317.9501 1484.7098 1325.6901 1240.7198 1395.4001C 1216.1998 1251.0702 1138.9498 1138.4702 1051.7198 1054.0101C 1052.1299 1054.2101 1052.5498 1054.4001 1052.9598 1054.6101C 948.64984 828.6101 1271.2499 528.76013 1641.3298 540.1601C 1676.1399 595.2301 1697.5398 678.6701 1650.8899 795.81006C 1817.0299 795.81006 1964.9698 977.15 1899.1399 1197.89C 1986.5099 1147.4501 2259.2898 1197.89 2224.44 1434.12C 2414.15 1461.23 2447.55 1658.74 2383.17 1763.31z" stroke="none" fill="#D7EDFD" fill-rule="nonzero" />
    <path d="M3937.1 424.32C 3937.1 441.75 4091.04 717.68 4317.59 621.83C 4544.1396 525.98004 3937.1 139.68 3937.1 424.32z" stroke="none" fill="#7FC7FD" fill-rule="nonzero" />
    <path d="M4628.38 555.8C 4628.38 576.25385 4621.1484 593.71234 4606.6855 608.1754C 4592.2227 622.6385 4574.764 629.87 4554.31 629.87C 4533.8564 629.87 4516.398 622.6385 4501.9346 608.1754C 4487.4717 593.71234 4480.24 576.25385 4480.24 555.8C 4480.24 535.3461 4487.4717 517.8877 4501.9346 503.4246C 4516.398 488.96152 4533.8564 481.72998 4554.31 481.72998C 4574.764 481.72998 4592.2227 488.96152 4606.6855 503.4246C 4621.1484 517.8877 4628.38 535.3461 4628.38 555.8C 4628.38 556.6619 4628.365 557.5236 4628.335 558.385" stroke="none" fill="#7FC7FD" fill-rule="nonzero" />
    <path d="M5303.68 1179.5C 5303.68 1179.5 5271.68 1273.89 5373.3804 1375.5C 5475.0806 1477.11 5581.5303 1359.5 5520.3003 1265.13C 5459.0703 1170.76 5318.2 1076.39 5303.68 1179.5z" stroke="none" fill="#7FC7FD" fill-rule="nonzero" />
    <path d="M5702.08 1294.71C 5702.08 1310.2153 5696.598 1323.4501 5685.6343 1334.4141C 5674.6704 1345.378 5661.4355 1350.8601 5645.93 1350.86C 5630.425 1350.8601 5617.19 1345.378 5606.226 1334.4141C 5595.262 1323.4501 5589.7803 1310.2153 5589.7803 1294.71C 5589.7803 1279.2046 5595.262 1265.97 5606.226 1255.0059C 5617.19 1244.042 5630.425 1238.56 5645.93 1238.5599C 5661.4355 1238.56 5674.6704 1244.042 5685.6343 1255.0059C 5696.598 1265.97 5702.08 1279.2046 5702.08 1294.71C 5702.08 1295.3634 5702.069 1296.0166 5702.046 1296.6696" stroke="none" fill="#7FC7FD" fill-rule="nonzero" />
    <path d="M666.6 648C 666.6 648 718.88 935.55 922.19995 784.51C 1125.5199 633.47003 1058.71 435.97 896.05994 470.82C 733.4099 505.67 666.6 508.55 666.6 648z" stroke="none" fill="#D2EBFD" fill-rule="nonzero" />
    <path d="M1253.14 423.75C 1253.14 435.62415 1248.9419 445.75934 1240.5457 454.15558C 1232.1494 462.55188 1222.0142 466.75003 1210.14 466.75C 1198.2659 466.75003 1188.1307 462.55188 1179.7344 454.15558C 1171.3381 445.75934 1167.1401 435.62415 1167.14 423.75C 1167.1401 411.8759 1171.3381 401.7407 1179.7344 393.34442C 1188.1307 384.94815 1198.2659 380.75 1210.14 380.75C 1222.0142 380.75 1232.1494 384.94815 1240.5457 393.34442C 1248.9419 401.7407 1253.14 411.8759 1253.14 423.75C 1253.14 424.2504 1253.1313 424.7506 1253.1138 425.25067" stroke="none" fill="#D2EBFD" fill-rule="nonzero" />
    <path d="M5106 3205.2L521.36 1875.51L344.88 1875.51L5004.1797 3300.56L5106 3205.2L521.36 1875.51L344.88 1875.51L5004.1797 3300.56L5106 3205.2zM4519.11 3559.05L263.67 1980.63L4519.11 3559.05L263.67 1980.63L4110.82 3654.74C 4250.72 3635.88 4389.1 3603.46 4519.11 3559.05zM204.65 2071.58C 187.12999 2109.1 175.01999 2149.72 167.94 2192.1602L167.94 2192.1602L2163 3580C 2393.27 3590.84 2636.95 3559.58 2858.74 3487zM5339.2 2895.46C 4244.2 2667.93 1597.7202 2124.91 840.79004 1969.6699L840.79004 1969.6699L784.05 1969.6699zM3694.93 1875.51L5539.6 1982.3C 5537.3604 1967.0668 5534.917 1951.9233 5532.27 1936.87L5532.27 1936.87L3937.1099 1875.51zM5520.79 2539L1702.77 1875.51L1454.48 1875.51zM5557 2191.88C 5556.2 2147.97 5553.58 2104.0398 5549.26 2060.5L5549.26 2060.5L2887.8896 1875.5L2190.27 1875.5z" stroke="none" fill="#BCD845" fill-rule="nonzero" />
    <path d="M556 1874.4C 556 1874.4 2391.9 2376.1602 2447.0898 2399.4C 2502.2798 2422.6396 3501.4297 2669.52 3576.9497 2707.2798C 3652.4697 2745.0396 4198.51 2878.64 4244.9497 2878.64C 4291.3896 2878.64 4398.8896 2928.0198 4456.9497 2971.64C 4515.01 3015.26 4790.9497 3058.7698 4831.63 3058.7698C 4872.31 3058.7698 4912.96 3084.9097 4933.29 3111.0498C 4953.62 3137.19 5133.7 3113.9597 5142.41 3142.9998C 5151.12 3172.0398 5106 3205.2 5106 3205.2L5106 3205.2L555.26 1883.36C 552.84 1880.7 556 1874.4 556 1874.4zM204.65 2071.58L2800.46 3507C 2800.46 3507 2852.74 3499.25 2891.46 3477C 2897.27 3439.25 212.52002 2059.6 212.52002 2059.6zM263.65 1980.6301L4519.65 3558.3003C 4519.65 3558.3003 4654.54 3529.3003 4651.65 3508.9204C 4648.76 3488.5405 272.07 1972.43 272.07 1972.43zM952.18994 1885.3002L2274.72 2156.3801C 2274.72 2156.3801 4447.3 2607.55 4447.3 2601.7402C 4447.3 2595.9304 4395.02 2572.7402 4364.04 2566.8901C 4333.06 2561.04 3972.9 2475.8901 3901.25 2466.2002C 3829.6 2456.5103 3167.38 2330.6602 3126.71 2311.2903C 3086.04 2291.9204 2429.63 2162.1902 2369.6 2152.5103C 2309.5703 2142.8303 970.6001 1873.6803 970.6001 1873.6803L970.6001 1873.6803L939.6001 1870.2903zM1517.6099 1888.2002L3934.17 2274.5002C 3934.17 2274.5002 3616.6099 2208.6702 3574.01 2197.0503C 3531.4102 2185.4304 2462.55 2022.7803 2431.56 2011.1603C 2400.57 1999.5403 1501.47 1873.6803 1501.47 1873.6803L1501.47 1873.6803L1458.23 1875.6104z" stroke="none" fill="#19767B" fill-rule="nonzero" />
    <path d="M2481 1528L2413.23 1528L2463.6099 1342.22C 2470.449 1317.0112 2493.3298 1299.5106 2519.45 1299.51L2519.45 1299.51L2590.45 1299.51L2481 1528z" stroke="none" fill="#6B1E31" fill-rule="nonzero" />
    <path d="M518.47 1805.9L380.99 2038.27L672.99 2046.26L518.47 1805.9L518.47 1805.9" stroke="none" fill="#D2EBFD" fill-rule="nonzero" />
    <path d="M938.74 1828.73L816.67 2035.05L1075.93 2042.15L938.74 1828.73L938.74 1828.73" stroke="none" fill="#D2EBFD" fill-rule="nonzero" />
    <path d="M1409.49 1829.96L1304.66 2007.13L1527.31 2013.23L1409.49 1829.96L1409.49 1829.96" stroke="none" fill="#D2EBFD" fill-rule="nonzero" />
    <path d="M1839.41 1827.9L1743.23 1990.45L1947.5 1996.04L1839.41 1827.9L1839.41 1827.9" stroke="none" fill="#D2EBFD" fill-rule="nonzero" />
    <path d="M3193.52 1818.66L3086.77 1999.08L3313.49 2005.29L3193.52 1818.66L3193.52 1818.66" stroke="none" fill="#D2EBFD" fill-rule="nonzero" />
    <path d="M3519.84 1836.38L3425.06 1996.58L3626.36 2002.09L3519.84 1836.38L3519.84 1836.38" stroke="none" fill="#D2EBFD" fill-rule="nonzero" />
    <path d="M3885.36 1837.34L3803.96 1974.91L3976.84 1979.64L3885.36 1837.34L3885.36 1837.34" stroke="none" fill="#D2EBFD" fill-rule="nonzero" />
    <path d="M4219.17 1835.74L4144.5 1961.95L4303.1 1966.3L4219.17 1835.74L4219.17 1835.74" stroke="none" fill="#D2EBFD" fill-rule="nonzero" />
    <path d="M2221.57 1827.9L2140.33 1965.2L2312.86 1969.92L2221.57 1827.9L2221.57 1827.9" stroke="none" fill="#D2EBFD" fill-rule="nonzero" />
    <path d="M4069.56 1804.74L4069.56 1743.33L3390.1 1600.39L3386.1902 1619L3460.3801 1634.6L3455.4802 1799.22L2306.31 1788.89L2312.72 1596.0701L2562.28 1570.7401L2560.36 1551.8301L990.83 1711.11L954.71 1776.74L466.19003 1772.35L466.19003 1824.63L4343.73 1850.77L4343.73 1807.2L4069.56 1804.74zM1002.67 1729L1421 1686.56L1421 1780.93L976.28 1776.93zM1440 1781L1440 1684.61L1870.22 1641L1870.22 1785L1430.59 1781zM1889.19 1639L2088.99 1618.72L2088.99 1786.88L1889.19 1785.09zM2108 1616.84L2293.63 1598L2287.2898 1788.71L2108 1787.11zM3479.24 1638.58L3556.74 1654.88L3556.74 1800.13L3474.46 1799.39zM3575.75 1658.88L3669.05 1678.51L3669.05 1801.14L3575.75 1800.3zM3688.06 1682.51L3943.84 1736.3201L3943.84 1803.6101L3688.06 1801.31zM3962.86 1740.3201L4050.51 1758.76L4050.51 1804.5701L3962.86 1803.78z" stroke="none" fill="#0B3336" fill-rule="nonzero" />
    <path d="M3386.18 1619L3386.18 1619L3386.18 1619L3386.18 1619L3386.18 1619" stroke="none" fill="#0B3336" fill-rule="nonzero" />
    <path d="M3417.68 1746.1C 3417.68 1901.59 3375.68 2027.63 3323.8098 2027.63C 3271.9397 2027.63 3229.9397 1901.63 3229.9397 1746.1C 3229.9397 1620.63 3192.1296 1504.15 3229.9397 1467.79C 3238.9397 1459.0901 3313.8098 1464.5801 3323.8098 1464.5801C 3375.66 1464.58 3417.68 1590.62 3417.68 1746.1z" stroke="none" fill="#0B3336" fill-rule="nonzero" />
    <path d="M3320.1 1753.79C 3320.1 1872.25 3359.75 1986.28 3327.4001 2029.7001C 3316.61 2044.17 3242.4001 2039.78 3229.9402 2039.78C 3180.1501 2039.78 3139.7903 1911.78 3139.7903 1753.78C 3139.7903 1595.78 3180.1504 1467.78 3229.9402 1467.78C 3279.73 1467.78 3320.1 1595.83 3320.1 1753.79z" stroke="none" fill="#0B3336" fill-rule="nonzero" />
    <path d="M3179.76 1765.96C 3179.76 1667.1562 3202.4368 1587.0599 3230.41 1587.0599C 3258.383 1587.0599 3281.0598 1667.1562 3281.0598 1765.96C 3281.0598 1864.7637 3258.383 1944.86 3230.41 1944.86C 3202.4368 1944.86 3179.76 1864.7637 3179.76 1765.96" stroke="none" fill="#A8908E" fill-rule="nonzero" />
    <path d="M3198.49 1765.96C 3198.49 1703.6954 3212.781 1653.22 3230.41 1653.22C 3248.0388 1653.22 3262.3298 1703.6954 3262.3298 1765.96C 3262.3298 1828.2245 3248.0388 1878.7 3230.41 1878.7C 3212.781 1878.7 3198.49 1828.2245 3198.49 1765.96" stroke="none" fill="#E3D4D3" fill-rule="nonzero" />
    <path d="M3427.52 1903.1099C 3427.52 1787.0306 3466.3594 1692.9299 3514.27 1692.9299C 3562.1807 1692.9299 3601.02 1787.0306 3601.02 1903.1099C 3601.02 2019.1891 3562.1807 2113.2898 3514.27 2113.2898C 3466.3594 2113.2898 3427.52 2019.1891 3427.52 1903.1099" stroke="none" fill="#0B3336" fill-rule="nonzero" />
    <path d="M3694.93 1894.18C 3694.93 2010.25 3654.49 2104.35 3604.5999 2104.35C 3593.7998 2104.35 3530.5999 2120.76 3520.9998 2112.6602C 3486.2598 2083.3801 3514.2698 1985.1101 3514.2698 1894.1802C 3514.2698 1799.1802 3477.1199 1719.0101 3514.2698 1692.9302C 3522.5398 1687.1301 3595.5198 1684.0001 3604.5999 1684.0001C 3654.49 1684 3694.93 1778.1 3694.93 1894.18z" stroke="none" fill="#0B3336" fill-rule="nonzero" />
    <path d="M3465.98 1912.05C 3465.98 1839.4412 3487.8015 1780.5801 3514.72 1780.5801C 3541.6384 1780.5801 3563.46 1839.4412 3563.46 1912.05C 3563.46 1984.6589 3541.6384 2043.52 3514.72 2043.52C 3487.8015 2043.52 3465.98 1984.6589 3465.98 1912.05" stroke="none" fill="#A8908E" fill-rule="nonzero" />
    <path d="M3109.37 1972.14L3523.27 1944.55C 3523.27 1944.55 3535.56 1934.9501 3523.27 1922.65C 3510.98 1910.35 3092.19 1947.4 3092.19 1947.4L3092.19 1947.4L3109.37 1972.14z" stroke="none" fill="#594D4C" fill-rule="nonzero" />
    <path d="M3152.87 1765.09C 3152.87 1765.09 3164.87 1811.33 3172.9302 1864.19C 3179.3801 1906.73 3183.2402 1953.5599 3176.11 1984L3176.11 1984L3466 1984L3466 1848.94L3435.26 1818.2L3417.26 1744.38L3152.87 1765.09z" stroke="none" fill="#6B1E31" fill-rule="nonzero" />
    <path d="M3098 1751.64L3122.72 1876.53C 3122.72 1876.53 3208.02 1903.11 3215.28 1903.11C 3222.54 1903.11 3208.05 1760.76 3208.05 1760.76L3208.05 1760.76L3098 1751.64z" stroke="none" fill="#6B1E31" fill-rule="nonzero" />
    <path d="M3215.32 1447.04L3197.89 1765.09L3449.14 1753.47L3405.57 1447.04L3215.32 1447.04L3215.32 1447.04" stroke="none" fill="#FE4775" fill-rule="nonzero" />
    <path d="M2826.12 1429.61L2877.48 1765.09L3152.88 1765.09L3152.88 1502.97L2956.66 1424.88L2826.12 1429.61L2826.12 1429.61" stroke="none" fill="#6B1E31" fill-rule="nonzero" />
    <path d="M2725.41 1883.8L2934.71 1883.8L2934.71 1704.41L2656.55 1670.8L2725.41 1883.8L2725.41 1883.8" stroke="none" fill="#061D1F" fill-rule="nonzero" />
    <path d="M3312.14 1384.22L3370.71 1424.88L3417.24 1725.98C 3417.24 1725.98 3365.94 1754.0599 3365.94 1744.38C 3365.94 1734.7001 3312.14 1384.22 3312.14 1384.22z" stroke="none" fill="#FE4775" fill-rule="nonzero" />
    <path d="M2505.17 1412.19L2634.42 1019.11C 2634.42 1019.11 2644.5798 986.19 2681.3699 977.8C 2718.16 969.41 2907.93 930 2907.93 930C 2907.93 930 2974.73 921.28 3037.66 930C 3100.5898 938.72 3280.66 935.8 3293.26 1011.32C 3305.86 1086.8401 3323.52 1432 3323.52 1432L3323.52 1432L2843.06 1447L2903.32 1793.61L2607.79 1734.5499L2505.17 1412.19z" stroke="none" fill="#FE4775" fill-rule="nonzero" />
    <path d="M3284.55 1385.07L3140.36 1388.55L2956.66 1392.99L2843.06 1395.73L2844.4 1321.96L2844.4 1321.95L2845.63 1253.41L2845.63 1253.4L2849.84 1019.11L3251.63 1019.11L3267.13 1191.33L3284.55 1385.07L3284.55 1385.07" stroke="none" fill="#235D8A" fill-rule="nonzero" />
    <path d="M3025.03 1019.11L2844.4 1321.95L2845.63 1253.41L2845.63 1253.4L2968.46 1019.11L3025.03 1019.11L3025.03 1019.11" stroke="none" fill="#70ACDB" fill-rule="nonzero" />
    <path d="M3267.13 1191.33L3140.36 1388.55L2956.66 1392.99L3198.77 1019.11L3251.63 1019.11L3267.13 1191.33L3267.13 1191.33" stroke="none" fill="#70ACDB" fill-rule="nonzero" />
    <path d="M2812.07 1019.11L2810.71 1060.31L2808.27 1134.73L2799.5 1401.53L2705.06 1399.41L2671.38 1398.65L2601.8 1397.09L2567.73 1396.33L2540.99 1395.73L2655.86 1042.06L2717.34 1033.03L2745.36 1028.91L2812.07 1019.11L2812.07 1019.11" stroke="none" fill="#235D8A" fill-rule="nonzero" />
    <path d="M3329.93 1161.53C 3329.93 1161.53 3331.67 1243.6901 3335.25 1245.77C 3338.83 1247.85 3361.4 1245.77 3361.4 1245.77C 3361.4 1245.77 3358.25 1157.66 3354.8599 1157.66C 3351.4697 1157.66 3329.93 1161.53 3329.93 1161.53zM3039.43 1264L3039.43 987.16C 3039.43 987.16 3058.3499 977.95996 3061.23 987.16C 3064.11 996.36 3063.8 1263.96 3063.8 1263.96C 3063.8 1263.96 3045.65 1273.35 3039.43 1264z" stroke="none" fill="#0B3336" fill-rule="nonzero" />
    <path d="M2482.58 1456.08L2428.36 1715.5499L2525.1702 1720.71C 2525.1702 1720.71 2646.7903 1483.83 2646.7903 1479.96C 2646.7903 1476.09 2621.3503 1438.6499 2621.3503 1438.6499L2621.3503 1438.6499L2482.58 1456.08z" stroke="none" fill="#451320" fill-rule="nonzero" />
    <path d="M2786 1787.36C 2786 1964.01 2738.26 2107.21 2679.36 2107.21C 2620.4602 2107.21 2572.7102 1964.01 2572.7102 1787.36C 2572.7102 1644.8099 2529.7102 1512.47 2572.7102 1471.15C 2582.9802 1461.27 2667.9902 1467.51 2679.36 1467.51C 2738.24 1467.51 2786 1610.71 2786 1787.36z" stroke="none" fill="#0B3336" fill-rule="nonzero" />
    <path d="M2675.11 1796.09C 2675.11 1930.6799 2720.1702 2060.23 2683.4102 2109.56C 2671.1501 2126 2586.83 2121.02 2572.6902 2121.02C 2516.12 2121.02 2470.2603 1975.54 2470.2603 1796.0901C 2470.2603 1616.6401 2516.1204 1471.1501 2572.6902 1471.1501C 2629.26 1471.1501 2675.11 1616.63 2675.11 1796.09z" stroke="none" fill="#0B3336" fill-rule="nonzero" />
    <path d="M2515.67 1809.91C 2515.67 1697.6582 2541.436 1606.66 2573.22 1606.66C 2605.004 1606.66 2630.77 1697.6582 2630.77 1809.91C 2630.77 1922.1619 2605.004 2013.16 2573.22 2013.16C 2541.436 2013.16 2515.67 1922.1619 2515.67 1809.91" stroke="none" fill="#A8908E" fill-rule="nonzero" />
    <path d="M2536.96 1809.91C 2536.96 1739.1733 2553.194 1681.8301 2573.22 1681.8301C 2593.2458 1681.8301 2609.48 1739.1733 2609.48 1809.91C 2609.48 1880.6467 2593.2458 1937.99 2573.22 1937.99C 2553.194 1937.99 2536.96 1880.6467 2536.96 1809.91" stroke="none" fill="#E3D4D3" fill-rule="nonzero" />
    <path d="M2598.76 1453.49L2660.72 1570.32L2773.67 1566.45L2707.84 1429.61L2491.61 1429.61L2482.57 1456.08L2598.76 1453.49L2598.76 1453.49" stroke="none" fill="#FEAAC0" fill-rule="nonzero" />
    <path d="M3254.44 1473.5L3262.49 1630.34L3247.43 1632.23L3245.29 1471.25L3254.44 1473.5L3254.44 1473.5" stroke="none" fill="#023240" fill-rule="nonzero" />
    <path d="M3271.91 1471.25L3277.83 1631.4L3292.71 1629.53L3281.03 1473.49L3271.91 1471.25L3271.91 1471.25" stroke="none" fill="#023240" fill-rule="nonzero" />
    <path d="M3298.29 1471.25L3307.93 1630.57L3322.62 1628.72L3307.39 1473.48L3298.29 1471.25L3298.29 1471.25" stroke="none" fill="#023240" fill-rule="nonzero" />
    <path d="M3324.44 1471.25L3337.72 1629.76L3352.23 1627.92L3333.5 1473.47L3324.44 1471.25L3324.44 1471.25" stroke="none" fill="#023240" fill-rule="nonzero" />
    <path d="M3350.35 1471.25L3367.21 1628.95L3381.54 1627.12L3359.39 1473.46L3350.35 1471.25L3350.35 1471.25" stroke="none" fill="#023240" fill-rule="nonzero" />
    <path d="M3376.03 1471.25L3396.39 1628.16L3410.55 1626.34L3385.04 1473.45L3376.03 1471.25L3376.03 1471.25" stroke="none" fill="#023240" fill-rule="nonzero" />
    <path d="M2979.57 1412.19L2960.21 1554.51L3119.96 1554.51L3132.23 1765.09L3197.89 1765.09L3215.32 1447.04L2979.57 1412.19L2979.57 1412.19" stroke="none" fill="#B53353" fill-rule="nonzero" />
    <path d="M3405.57 1447.04L3215.32 1412.19L2979.57 1412.19L3215.32 1447.04L3405.57 1447.04L3405.57 1447.04" stroke="none" fill="#6B1E31" fill-rule="nonzero" />
    <path d="M3023.62 1538.53L3023.62 1258.25L3079.62 1258.25L3079.62 1543.21L3023.62 1538.53L3023.62 1538.53" stroke="none" fill="#0B3336" fill-rule="nonzero" />
    <path d="M2745.36 1028.91L2601.8 1397.09L2567.73 1396.33L2717.34 1033.03L2745.36 1028.91L2745.36 1028.91" stroke="none" fill="#1F527A" fill-rule="nonzero" />
    <path d="M2810.71 1060.31L2808.27 1134.73L2705.06 1399.41L2671.38 1398.65L2810.71 1060.31L2810.71 1060.31" stroke="none" fill="#2C74AD" fill-rule="nonzero" />
    <path d="M2849.84 1926.29C 2849.84 1800.6342 2891.885 1698.77 2943.75 1698.77C 2995.615 1698.77 3037.66 1800.6342 3037.66 1926.29C 3037.66 2051.9458 2995.615 2153.81 2943.75 2153.81C 2891.885 2153.81 2849.84 2051.9458 2849.84 1926.29" stroke="none" fill="#0B3336" fill-rule="nonzero" />
    <path d="M3139.32 1916.62C 3139.32 2042.27 3095.54 2144.14 3041.53 2144.14C 3032.23 2144.14 2956.47 2159.22 2947.94 2153.5698C 2906.94 2126.44 2943.75 2020.5698 2943.75 1916.5698C 2943.75 1814.4698 2899.75 1731.1798 2939.55 1702.3699C 2948.74 1695.7299 3031.4102 1689.0499 3041.55 1689.0499C 3095.54 1689.1 3139.32 1791 3139.32 1916.62z" stroke="none" fill="#0B3336" fill-rule="nonzero" />
    <path d="M2891.46 1935.97C 2891.46 1857.3688 2915.086 1793.6499 2944.23 1793.6499C 2973.374 1793.6499 2997 1857.3688 2997 1935.97C 2997 2014.5712 2973.374 2078.29 2944.23 2078.29C 2915.086 2078.29 2891.46 2014.5712 2891.46 1935.97" stroke="none" fill="#A8908E" fill-rule="nonzero" />
    <path d="M2925.44 1935.97C 2925.44 1907.9857 2933.8525 1885.2999 2944.23 1885.2999C 2954.6074 1885.2999 2963.02 1907.9857 2963.02 1935.97C 2963.02 1963.9542 2954.6074 1986.64 2944.23 1986.64C 2933.8525 1986.64 2925.44 1963.9542 2925.44 1935.97" stroke="none" fill="#0B3336" fill-rule="nonzero" />
    <path d="M3310.46 1260.94C 3310.46 1260.94 3352.23 1243.74 3352.23 1240.2799C 3352.23 1236.8198 3350.35 1220.9199 3350.35 1220.9199L3350.35 1220.9199L3302.9402 1240.9199L3310.46 1260.94zM3039.43 987.16C 3039.43 987.16 3006.72 899.35 2979.5698 883.67L2979.5698 883.67L3000.8699 850.75C 3000.8699 850.75 3059.42 924.1 3061.23 987.16003C 3045 1003.35 3039.43 987.16 3039.43 987.16z" stroke="none" fill="#0B3336" fill-rule="nonzero" />
    <path d="M2932.13 518.67C 2921.9246 518.6651 2911.7603 519.95544 2901.88 522.51C 2873.4058 462.66196 2804.2131 434.1289 2741.8298 456.51C 2749.3936 438.74643 2744.6165 418.13135 2730.011 405.50476C 2715.4055 392.8782 2694.3162 391.1319 2677.8328 401.18414C 2661.3494 411.2364 2653.2466 430.78497 2657.7854 449.5507C 2662.324 468.31644 2678.4646 482.00156 2697.7197 483.41C 2668.7969 510.27185 2653.7776 548.9057 2656.962 588.2497C 2660.1465 627.5936 2681.1836 663.30914 2714.0498 685.17C 2669.3972 723.2903 2658.4102 787.89606 2687.951 838.63403C 2717.492 889.372 2779.1003 911.71075 2834.2952 891.6973C 2889.4902 871.6839 2922.4634 815.0502 2912.6199 757.17C 2957.259 764.5314 3002.2458 746.1741 3028.9907 709.68384C 3055.7356 673.1936 3059.6968 624.7671 3039.2373 584.4158C 3018.7776 544.0644 2977.3718 518.64044 2932.13 518.64996L2932.13 518.64996L2932.13 518.67z" stroke="none" fill="#D2EBFD" fill-rule="nonzero" />
    <path transform="matrix(0.98708034 -0.16022578 0.16022578 0.98708034 -43.97998 414.90005)"  d="M2586.95 480.25C 2586.95 490.04755 2583.486 498.41025 2576.558 505.33813C 2569.6304 512.26605 2561.2676 515.73 2551.47 515.73C 2541.6724 515.73 2533.3098 512.26605 2526.3818 505.33813C 2519.454 498.41025 2515.99 490.04755 2515.99 480.25C 2515.99 470.45248 2519.454 462.08978 2526.3818 455.16187C 2533.3098 448.23395 2541.6724 444.77002 2551.47 444.77C 2561.2676 444.77002 2569.6304 448.23395 2576.558 455.16187C 2583.486 462.08978 2586.95 470.45248 2586.95 480.25C 2586.95 480.66287 2586.9429 481.07562 2586.9285 481.48822" stroke="none" fill="#D2EBFD" fill-rule="nonzero" />
    <path d="M2810.71 296.76C 2810.71 309.67242 2806.1448 320.69385 2797.0142 329.8243C 2787.8838 338.95477 2776.8623 343.52002 2763.95 343.52002C 2751.0376 343.52002 2740.016 338.95477 2730.8857 329.8243C 2721.7554 320.69385 2717.19 309.67242 2717.19 296.76C 2717.19 283.8476 2721.7554 272.82617 2730.8857 263.6957C 2740.016 254.56526 2751.0376 250.00003 2763.95 250.00002C 2776.8623 250.00003 2787.8838 254.56526 2797.0142 263.6957C 2806.1448 272.82617 2810.71 283.8476 2810.71 296.76C 2810.71 297.30414 2810.7004 297.8481 2810.6814 298.3919" stroke="none" fill="#D2EBFD" fill-rule="nonzero" />
    <path d="M2996.92 856.85C 2996.92 856.85 2972.79 757.51996 2991.19 709.74C 2848.8699 742.32 2854.3599 764.58 2854.3599 764.58L2854.3599 764.58L2858.5498 835.26C 2858.5498 835.26 2971.9297 844.4 2985.5498 874.48C 3001.84 868.18 2996.92 856.85 2996.92 856.85z" stroke="none" fill="#D2EBFD" fill-rule="nonzero" />
    <path d="M3226.94 1828.25L3298.29 1828.25L3298.29 1974.1L3226.94 1974.1z" stroke="none" fill="#061D1F" fill-rule="nonzero" />
    <path d="M3340.36 1828.25L3411.7102 1828.25L3411.7102 1974.1L3340.36 1974.1z" stroke="none" fill="#061D1F" fill-rule="nonzero" />
    <path d="M3245.34 1648.42L3245.34 1719.58L3312.14 1715.22L3309.41 1648.47L3245.34 1648.42L3245.34 1648.42" stroke="none" fill="#FDE81D" fill-rule="nonzero" />
    <path d="M3348.77 1645.52L3352.96 1721.68L3417.24 1718.08L3407.18 1645.52L3348.77 1645.52L3348.77 1645.52" stroke="none" fill="#FDE81D" fill-rule="nonzero" />
    <path d="M3031.1 1539.16C 3031.1 1539.16 3025.99 1583.8201 3048.23 1606.06C 3070.47 1628.3 3111.89 1619.81 3111.89 1619.81L3111.89 1619.81L3106.73 1580.28C 3106.73 1580.28 3063.81 1576.28 3063.81 1541.89C 3052.8547 1541.7754 3041.9229 1540.863 3031.1 1539.16z" stroke="none" fill="#FFFFFF" fill-rule="nonzero" />
    <path d="M2816.92 1697.13L2891.47 1697.13L2891.47 1726.28L2816.92 1730.15L2816.92 1697.13L2816.92 1697.13" stroke="none" fill="#FFFFFF" fill-rule="nonzero" />
    <path d="M2821.53 1645.52L2896.07 1645.52L2896.07 1674.67L2821.53 1678.54L2821.53 1645.52L2821.53 1645.52" stroke="none" fill="#FFFFFF" fill-rule="nonzero" />
    <path d="M2907.9 933.37C 2907.9 923.56696 2915.847 915.62 2925.65 915.62L2925.65 915.62L2979.8699 915.62C 2989.6729 915.62 2997.6199 923.56696 2997.6199 933.37L2997.6199 933.37L2997.6199 959.19C 2997.6199 968.99304 2989.6729 976.94 2979.8699 976.94L2979.8699 976.94L2925.65 976.94C 2915.847 976.94 2907.9 968.99304 2907.9 959.19L2907.9 959.19L2907.9 933.37z" stroke="none" fill="#0B3336" fill-rule="nonzero" />
    <path d="M2491.59 1202.52C 2491.59 1192.7169 2499.537 1184.77 2509.34 1184.77L2509.34 1184.77L2563.56 1184.77C 2573.363 1184.77 2581.31 1192.7169 2581.31 1202.52L2581.31 1202.52L2581.31 1228.34C 2581.31 1238.1431 2573.363 1246.09 2563.56 1246.09L2563.56 1246.09L2509.34 1246.09C 2499.537 1246.09 2491.59 1238.1431 2491.59 1228.34L2491.59 1228.34L2491.59 1202.52z" stroke="none" fill="#0B3336" fill-rule="nonzero" />
    <path d="M3108.02 933.37C 3108.02 923.56696 3115.967 915.62 3125.77 915.62L3125.77 915.62L3179.99 915.62C 3189.793 915.62 3197.74 923.56696 3197.74 933.37L3197.74 933.37L3197.74 959.19C 3197.74 968.99304 3189.793 976.94 3179.99 976.94L3179.99 976.94L3125.77 976.94C 3115.967 976.94 3108.02 968.99304 3108.02 959.19L3108.02 959.19L3108.02 933.37z" stroke="none" fill="#0B3336" fill-rule="nonzero" />
    <path d="M3579.7 724.62C 3574.51 732.62 3569.2 740.77 3563.8398 749C 3504.3179 710.3589 3427.6318 710.3589 3368.1099 749L3368.1099 749L3352.2498 724.62C 3421.4126 679.6996 3510.5366 679.6996 3579.6997 724.62L3579.6997 724.62L3579.7 724.62z" stroke="none" fill="#FFFFFF" fill-rule="nonzero" />
    <path d="M3548 773.4L3532.18 797.81L3548 773.4L3532.18 797.81C 3527 789.81 3521.69 781.64 3516.3599 773.42L3516.3599 773.42L3548 773.4zM3516.37 822.22L3500.56 846.63995L3516.37 822.22L3500.56 846.63995C 3495.62 838.99994 3490.31 830.80994 3484.74 822.20996zM3500.6 900.13C 3514.883 897.8115 3529.1016 904.6208 3536.2488 917.2024C 3543.3962 929.78406 3541.9648 945.4837 3532.6597 956.56525C 3523.3547 967.6467 3508.1392 971.77216 3494.511 966.9087C 3480.8828 962.0452 3471.7168 949.2189 3471.53 934.75L3500.6 900.13L3471.53 934.75zM1083.94 2267.48L1068.09 2291.8599L1083.94 2267.48L1068.09 2291.8599L1052.23 2267.48L1083.94 2267.48L1068.09 2291.8599L1052.23 2267.48z" stroke="none" fill="#FFFFFF" fill-rule="nonzero" />
    <path d="M1052.26 2316.26L1036.43 2340.67L1052.26 2316.26L1036.43 2340.67C 1031.26 2332.67 1025.9401 2324.49 1020.62006 2316.27L1020.62006 2316.27L1052.26 2316.26zM1020.62 2365.08C 1015.06 2373.6602 1009.75 2381.87 1004.8 2389.49C 999.87 2381.85 994.56 2373.66 988.99 2365.06zM1004.85 2443C 574.636 2616.313 84.6405 2546.9448 -280.56 2261.025C -645.7605 1975.1052 -830.6832 1516.0725 -765.6698 1056.8398C -700.6564 597.60706 -395.58386 207.943 34.63 34.63L1004.85 2443L34.63 34.63z" stroke="none" fill="#FFFFFF" fill-rule="nonzero" />
    <path d="M5093.57 1799.71L5093.86 1805.02C 5091.146 1805.0192 5088.4346 1804.8589 5085.7397 1804.54C 5083.17 1804.15 5082.9297 1803.54 5085.8096 1802.54C 5086.3096 1802.37 5086.9097 1802.2001 5087.6094 1802.01C 5089.673 1801.4584 5091.671 1800.6873 5093.57 1799.71z" stroke="none" fill="#7FC7FD" fill-rule="nonzero" />
    <path d="M4248.76 1198.49C 4085.1099 1084.79 3853.1099 1089.49 3707.6396 1226.94C 3868.6396 1121.24 4081.3696 1121.07 4253.6396 1201.7599L4253.6396 1201.7599L4248.76 1198.49z" stroke="none" fill="#6FC0FD" fill-rule="nonzero" />
    <path d="M2009.94 1119.41L2009.94 1119.35L2009.94 1119.41zM2215.69 1241.22C 2184.13 1161.53 2099 1102 2010 1119.35L2010 1119.35L2010 1119.41L2010 1119.36C 2022.93 1039.86 1995.27 942.91 1934.48 893.36C 1989.73 960.02 1999.29 1066.72 1977.73 1152.61L1977.73 1152.61L1977.82 1152.69C 2081.27 1122.2799 2161.42 1160.5499 2217.67 1246.2599C 2217.62 1246.3 2217 1244.53 2215.69 1241.22z" stroke="none" fill="#D2EBFD" fill-rule="nonzero" />
    <path d="M2009.97 1119.36L2009.97 1119.35L2009.95 1119.36L2009.95 1119.36L2009.97 1119.36L2009.97 1119.36" stroke="none" fill="#D2EBFD" fill-rule="nonzero" />
    <path d="M5253.07 2971.06C 5253.07 2971.06 4513.1597 2568.83 4784.25 1987.92C 5334.17 2305.48 5512.32 2692.75 5512.32 2692.75C 5512.32 2692.75 5351.6 2696.63 5253.07 2971.06z" stroke="none" fill="#69A31A" fill-rule="nonzero" />
    <path d="M5292.56 2663.77C 5277.12 2665.05 5286.96 1810.77 5739.9 1714.48C 5776.46 2339.41 5429 2652.43 5292.56 2663.77z" stroke="none" fill="#85B51D" fill-rule="nonzero" />
    <path d="M5691.5 1782C 5518.43 2007 5411.29 2319.88 5337.08 2588.24C 5424.81 2370.12 5526.42 2101.78 5632.72 1888.24C 5652.18 1849.76 5674.3403 1810.34 5697.24 1774.9299L5697.24 1774.9299L5691.5 1782zM5276.5 2890.73C 5088.68 2680.73 4914.56 2360.73 4808.45 2085.73C 4891.8003 2391.98 5060.37 2707.12 5302.22 2919.33C 5302.22 2919.31 5293.1 2909 5276.5 2890.73z" stroke="none" fill="#C4DD5D" fill-rule="nonzero" />
    <path d="M5216.06 2934.8C 5216.06 2934.8 5250.91 2442.96 5827.94 2388.75C 5982.85 2880.58 5216.06 2934.8 5216.06 2934.8z" stroke="none" fill="#588A16" fill-rule="nonzero" />
    <path d="M5795.14 2448.85C 5683.22 2631.51 5454.5703 2776.6802 5270.27 2852.5C 5481.55 2802.09 5713 2651.43 5798.9 2443L5798.9 2443L5795.14 2448.85z" stroke="none" fill="#C4DD5D" fill-rule="nonzero" />
    <path d="M5203.27 3078C 4777.43 2991.71 4348.18 2737 4190.08 2314.28C 4187.23 2306 4184.67 2297.66 4182.18 2289.28C 4178.9204 2276.59 4159.27 2281.97 4162.54 2294.7C 4168.44 2316 4176.38 2336.7 4184.79 2357.13C 4266.89 2552 4411 2714.34 4581.05 2837C 4605.05 2839.13 4629.8896 2847.54 4632.26 2871.9C 4680.2227 2902.9443 4729.9966 2931.1055 4781.3096 2956.23C 4789.6196 2954.13 4797.1294 2956.35 4804.0996 2961.44C 4833.82 2987.44 4874.6597 2996.54 4910.3 3012.7C 4958.66 3031.4734 5007.797 3048.0566 5057.71 3062.45C 5079.29 3054.79 5104.17 3056.39 5114.55 3078.01C 5142.17 3085.1501 5169.94 3091.6836 5197.86 3097.61C 5210.64 3100.32 5216.11 3080.69 5203.27 3078z" stroke="none" fill="#69A31A" fill-rule="nonzero" />
    <path d="M4613.88 2792.73C 4624.51 2824.21 4653.62 2858.59 4686 2853.25C 4732.67 2844.25 4746.88 2781.25 4743.27 2738.09C 4741.99 2669.9001 4674.94 2583.09 4620.78 2666.36C 4600.08 2702.23 4599.45 2753.86 4613.88 2792.73zM4819.7 2914C 4832.8604 2958.52 4878.45 2981 4915.06 2946.26C 4955.06 2908.05 4967.06 2840.45 4942.71 2790.78C 4913.71 2735.3901 4854.53 2758.28 4830.71 2805.36C 4813.34 2836.58 4808.06 2880.09 4819.7 2914zM4453.82 2623.42C 4456.05 2658.01 4488.15 2710.53 4524.3496 2675.5898C 4556.7295 2641.4897 4586.6094 2547.5898 4579.8594 2500.95C 4568.469 2446.24 4504.3594 2481.43 4484.449 2512.03C 4461.58 2541.22 4448.67 2586.65 4453.82 2623.42zM4325.77 2461.83C 4353.36 2552.59 4477.08 2455.4302 4439.58 2363.09C 4419.06 2326.36 4367.9 2351.22 4347.92 2377.75C 4329 2400.79 4318.83 2434 4325.77 2461.83zM4245 2331.14C 4283 2337.3599 4318.46 2299.14 4325.11 2264.47C 4326.9297 2252.15 4323.1797 2240.7 4322.85 2228.27C 4326.49 2174.27 4275.49 2174.12 4243.02 2202.91C 4205.2 2232.17 4189.56 2316 4245 2331.14zM4098.37 2262C 4141.67 2320.09 4197.18 2266.06 4195.42 2212.15C 4193.76 2202.42 4187.73 2197.72 4181.69 2189.15C 4165.37 2164.27 4138.2197 2136.96 4108.13 2161.0498C 4079.7 2183.05 4077.57 2234.35 4098.37 2262zM4053.22 2412.12C 4064.47 2451.82 4113.31 2472.12 4151.2197 2460.86C 4178.9297 2453.55 4201.8896 2426.1301 4188.3496 2399.4001C 4176.51 2378.6702 4155.7695 2362.6902 4135.0396 2353.2402C 4099.61 2354 4041.07 2362.48 4053.22 2412.12zM4262.78 2593.23C 4298.3896 2554.06 4275.01 2509.84 4226.48 2507.23C 4201.68 2505.51 4184.4 2508.52 4169.97 2529.7C 4160.62 2540.3 4149.75 2548.88 4143.3203 2562.05C 4128.1704 2592.05 4161.0703 2618.82 4189.3804 2620.47C 4214.82 2624 4246.71 2611.89 4262.78 2593.23zM4386.28 2665.64C 4358.8096 2653.1099 4324.9297 2656.15 4297.15 2667.19C 4259.15 2682.29 4216.56 2731.8699 4267.15 2760.75C 4299.05 2779.65 4346.69 2774.6 4377.09 2754.98C 4413.28 2734 4429.84 2686 4386.28 2665.64zM4583.23 2837.17C 4553.55 2834.52 4520.69 2839.79 4492.23 2848.46C 4446.23 2860.98 4399.09 2897.8599 4455.03 2936.82C 4567.43 3002.43 4709.5 2854 4583.23 2837.17zM4804.1 2961.42C 4792.1 2952.75 4785.0503 2955.17 4772.5 2958.78C 4762.39 2957.55 4752.18 2953.86 4742.07 2956.61C 4720.3 2963.4702 4702.36 2984.2202 4695.44 3005.9702C 4679.38 3069.8303 4760.06 3084.1902 4800.06 3049.0203C 4818.88 3033.9602 4833.85 3008.5403 4827.89 2984.0203C 4820.14 2976.26 4813.1 2967.88 4804.1 2961.42zM5099.87 3062.6C 5055.87 3043.87 4997.99 3094.3 4977.67 3130.9102C 4922.89 3217.37 5033.46 3225.58 5081.85 3176.6301C 5111.38 3151.15 5140 3088.45 5099.87 3062.6zM5052.93 3027.9C 5155.2603 3086.9 5186.24 2905.43 5090.93 2862.01C 5043.2803 2827.9 5008.66 2872.57 5005.44 2920.08C 5000.87 2959.11 5023.18 3009.74 5052.93 3027.9zM5006.16 3310.31C 4493.8203 3383.31 3913.1602 3256.53 3570.25 2845.4302C 3710.66 3012.1401 3895.17 3139.34 4097.9 3218.3203C 4116.04 3225.4736 4134.3164 3232.2637 4152.73 3238.6904C 4164.3 3241.2004 4175.78 3246.4104 4183.48 3255.3604C 4433.86 3331.0303 4700 3350.2903 4959.56 3319.5803C 4973.17 3317.9004 4987.24 3316.5103 5000.65 3313.5803C 5024.45 3327.61 5019 3308 5006.16 3310.31z" stroke="none" fill="#69A31A" fill-rule="nonzero" />
    <path d="M4791.73 3349C 4758.45 3350.18 4728.59 3378.39 4723.73 3411.08C 4717.64 3450.8 4758.61 3473.08 4793.54 3463.56C 4830.9 3455.6301 4871.08 3413.1702 4853.86 3374.21C 4842.4 3355.64 4810.87 3349.3 4791.73 3349zM4858.92 3274.93C 4860.03 3237.3 4875.38 3236.03 4841.73 3206.93C 4810.98 3178.5598 4764.11 3184.6199 4755.01 3229.3499C 4744.55 3272.0999 4785.01 3329.8198 4832.3696 3319.5698C 4837.7896 3318.0999 4842.4995 3315.9998 4846.3696 3312.4497C 4854.19 3301.56 4861.56 3288.8 4858.92 3274.93zM4460.46 3248.62C 4519.01 3362.36 4613.14 3292.36 4555.7397 3190.7102C 4543.9897 3169.4102 4525.05 3155.3303 4502.86 3147.34C 4446.44 3127.66 4442 3214.25 4460.46 3248.62zM4509.43 3334.62C 4437.19 3330.76 4366.49 3424.1902 4389.7803 3492.62C 4418.18 3548.85 4480.0303 3484.56 4502.7305 3453.85C 4526.2 3423.73 4571.16 3346.57 4509.43 3334.62zM4179.07 3066.48C 4157.4 3097.34 4159.51 3161.08 4183.19 3190.43C 4205.19 3222.64 4244.01 3219.05 4261.76 3185.24C 4280.8896 3154.35 4278.96 3096 4257.82 3066.45C 4237.87 3033.91 4198.93 3032.86 4179.07 3066.48zM4190.69 3268C 4136.19 3227.72 4054.14 3274.87 4036.26 3333.77C 4028.89 3356.33 4030.1301 3386.28 4052.41 3397.28C 4076.19 3407.6501 4102.5 3392.6401 4123.21 3380.56C 4151.64 3362.76 4230.12 3302.65 4190.69 3268zM3912.65 3105.51L3933.72 3126.91L3912.65 3105.51L3933.72 3126.91L3954.79 3148.2998C 4002.4102 3113.15 4000.69 2989.65 3934.46 2978.6897C 3865.94 2940.32 3861 3071 3912.65 3105.51zM3854.74 3136C 3822.35 3097.77 3754.91 3107.63 3722.74 3141.55C 3680.6199 3186.7 3721.74 3227.75 3773.39 3225.81C 3816 3227.39 3886.15 3183.76 3854.74 3136zM3708.18 2984.9C 3748.53 3015.17 3793.28 2965.51 3792.92 2924.4C 3797.67 2872.4 3742.92 2818.7 3700.3098 2868.19C 3673.82 2900.5 3674.39 2957.84 3708.18 2984.9zM3663.81 2977.73C 3634.48 2950.08 3584.6802 2943.6 3547.23 2954.99C 3513.09 2963.35 3474.83 3000.06 3503.58 3032.6C 3536.6802 3065.1501 3599.86 3066.7202 3640.4302 3052.9302C 3677.69 3041.39 3696.65 3008.27 3663.81 2977.73zM3570.25 2845.43C 3592.25 2803.5598 3569.42 2747.43 3528.45 2726.5798C 3466.29 2695.8499 3442.91 2771.13 3468.96 2817.64C 3485 2855 3543.23 2889.1 3570.25 2845.43z" stroke="none" fill="#69A31A" fill-rule="nonzero" />
    <path d="M5056.79 3257.68C 5056.79 3257.68 4856.38 3232.99 4885.42 3584.44C 5164.26 3805.19 5154.09 3151.67 5154.09 3151.67L5154.09 3151.67L5056.79 3257.68z" stroke="none" fill="#588A16" fill-rule="nonzero" />
    <path d="M5059.88 3307.16C 5059.27 3290.0999 5057.32 3273.03 5053.4 3258.16C 5044.32 3362.95 5000.4 3474.94 4936.25 3557.3198C 5014.42 3506.16 5065.26 3401.45 5059.88 3307.16z" stroke="none" fill="#C4DD5D" fill-rule="nonzero" />
    <path d="M5152.16 3132.3C 5152.16 3132.3 5293.5103 3513.77 5738.87 3562.17C 5735 3238.7998 5516.19 2865.0898 5214.12 2925.1099C 5138.6 3027.74 5152.16 3132.3 5152.16 3132.3z" stroke="none" fill="#69A31A" fill-rule="nonzero" />
    <path d="M5721.18 3531.2C 5652 3273.29 5437.12 3054 5167.65 3033.55C 5425.29 3086.85 5625.35 3297.85 5723.38 3538.94L5723.38 3538.94L5721.18 3531.2z" stroke="none" fill="#C4DD5D" fill-rule="nonzero" />
    <path d="M405.19 2355.83C 405.19 2355.83 534.45 2390.6802 573.66003 2432.83C 633.2 2438.6401 650.66003 2467.6802 657.89 2492.37C 665.12 2517.06 702.89 2506.8901 727.60004 2517.06C 752.31006 2527.23 762.45 2564.98 763.9 2570.79C 765.35004 2576.6 925.1 2646.28 944 2681.13C 962.9 2715.9797 989 2708.73 1013.71 2721.7998C 1038.42 2734.8696 1209.77 2900.4297 1235.91 2897.5198C 1262.05 2894.6099 1410.18 2980.2998 1420.3501 3004.9897C 1430.5201 3029.6797 1655.6101 3166.1897 1716.6101 3192.3298C 1777.6101 3218.47 1806.6101 3246.0598 1818.2701 3275.1099C 1829.9302 3304.16 1927.1902 3340.46 1946.0602 3352.1099C 1964.9302 3363.7598 2259.7502 3526.38 2259.7502 3526.38L2259.7502 3526.38L2354.1501 3578.66C 2354.1501 3578.66 2192.7002 3582.76 2163.06 3579.99C 2070.94 3517.64 405.19 2355.83 405.19 2355.83zM880.57 2288.06C 880.57 2288.06 1744.1799 2647.73 1768.87 2659.35C 1793.56 2670.9702 2322.18 2891.7102 2390.44 2917.85C 2458.7 2943.99 2477.5698 2952.7102 2477.5698 2952.7102C 2477.5698 2952.7102 2547.2798 2981.7102 2638.7698 3013.7102C 2730.2598 3045.7102 3215.3198 3286.7102 3285.0298 3302.7102C 3354.7397 3318.7102 4098.78 3651.9001 4115.5596 3653.1902C 4132.3394 3654.4802 4151.0596 3651.9001 4151.0596 3651.9001C 4151.0596 3651.9001 4222.0596 3640.28 4211.7397 3635.7703C 4201.42 3631.2605 4140.7397 3635.7703 4107.82 3608.6602C 4074.9 3581.55 4024.5498 3556.3801 4004.5498 3554.4402C 3984.5498 3552.5002 3956.7798 3559.6 3934.8398 3540.8801C 3912.9 3522.1602 3745.7197 3473.11 3730.8398 3461.4902C 3715.96 3449.8704 3691.46 3425.3503 3668.2297 3418.8901C 3644.9995 3412.43 3479.7598 3344.02 3428.1196 3325.9502C 3376.4795 3307.8804 3373.8997 3309.1702 3354.5396 3302.0703C 3335.1794 3294.9705 3142.8296 3234.9404 3129.9194 3216.8704C 3117.0093 3198.8003 3081.5095 3184.6003 3075.0593 3184.6003C 3068.6091 3184.6003 3044.0593 3194.9204 3034.3894 3174.9104C 3024.7195 3154.9004 3022.7793 3141.3503 3009.8694 3139.4104C 2996.9595 3137.4705 3011.7993 3152.9705 2969.1995 3138.1204C 2926.5996 3123.2703 2777.5095 3051.6304 2752.3296 3038.1204C 2727.1497 3024.6104 2309.0696 2865.6204 2309.0696 2865.6204C 2309.0696 2865.6204 937.69 2292.9 880.57 2288.06z" stroke="none" fill="#CEED35" fill-rule="nonzero" />
    <path d="M1134.23 2560.13C 1134.23 2447.3977 1225.6177 2356.01 1338.35 2356.01L1338.35 2356.01L3031.0498 2356.01C 3143.7822 2356.01 3235.17 2447.3977 3235.17 2560.13L3235.17 2560.13L3235.17 3545.88C 3235.17 3658.6123 3143.7822 3750 3031.0498 3750L3031.0498 3750L1338.35 3750C 1225.6177 3750 1134.23 3658.6123 1134.23 3545.88L1134.23 3545.88L1134.23 2560.13z" stroke="none" fill="#A0D5FD" fill-rule="nonzero" fill-opacity="0.4" />
    <path transform="matrix(7.5497894E-08 0.99999994 -0.99999994 7.5497894E-08 5237.7095 868.3098)"  d="M1559.59 2206.66C 1559.59 2133.6257 1618.7958 2074.42 1691.83 2074.42L1691.83 2074.42L2677.5698 2074.42C 2750.604 2074.42 2809.81 2133.6257 2809.81 2206.66L2809.81 2206.66L2809.81 3899.3599C 2809.81 3972.394 2750.604 4031.6 2677.5698 4031.6L2677.5698 4031.6L1691.83 4031.6C 1618.7958 4031.6 1559.59 3972.394 1559.59 3899.3599L1559.59 3899.3599L1559.59 2206.66z" stroke="none" fill="#FFFFFF" fill-rule="nonzero" fill-opacity="0.8" />
    <path d="M1837.13 2553.82C 1829.3981 2553.82 1823.13 2560.0881 1823.13 2567.82C 1823.13 2575.552 1829.3981 2581.82 1837.13 2581.82L1837.13 2581.82L1973.8201 2581.82L1973.8201 2553.73L1837.13 2553.82z" stroke="none" fill="#93C74B" fill-rule="nonzero" />
    <path d="M2091.75 2553.82L1973.82 2553.82L1973.82 2581.9102L2091.75 2581.9102C 2099.482 2581.9102 2105.75 2575.642 2105.75 2567.9102C 2105.774 2564.182 2104.3096 2560.5977 2101.6814 2557.9526C 2099.0532 2555.3076 2095.4788 2553.8203 2091.75 2553.82z" stroke="none" fill="#A0D5FD" fill-rule="nonzero" fill-opacity="0.4" />
    <path d="M1837.13 2619.35C 1829.3981 2619.35 1823.13 2625.6182 1823.13 2633.35C 1823.1167 2637.0715 1824.5858 2640.6453 1827.2128 2643.2817C 1829.8397 2645.918 1833.4082 2647.4 1837.13 2647.4001L1837.13 2647.4001L2033.49 2647.4001L2033.49 2619.31L1837.13 2619.35z" stroke="none" fill="#93C74B" fill-rule="nonzero" />
    <path d="M2091.75 2619.35L2033.49 2619.35L2033.49 2647.4402L2091.75 2647.4402L2091.75 2619.35L2033.49 2619.35L2033.49 2647.4402L2091.75 2647.4402L2091.75 2619.35L2033.49 2619.35L2033.49 2647.4402L2091.75 2647.4402L2091.75 2619.35zM2091.75 2684.87L1949.75 2684.87L1949.75 2713L2091.75 2713L2091.75 2684.87L1949.75 2684.87L1949.75 2713L2091.75 2713L2091.75 2684.87L1949.75 2684.87L1949.75 2713L2091.75 2713z" stroke="none" fill="#A0D5FD" fill-rule="nonzero" fill-opacity="0.4" />
    <path d="M1837.13 2684.87L1949.71 2684.87L1949.71 2656.78L1837.13 2684.87zM1347.56 3452.29L1522.15 3452.29L1522.15 3427.43z" stroke="none" fill="#93C74B" fill-rule="nonzero" />
    <path d="M1573 3452.29L1522.18 3452.29L1522.18 3477.1501L1573 3477.1501C 1579.865 3477.15 1585.43 3471.585 1585.43 3464.7202C 1585.4302 3461.4236 1584.1206 3458.2617 1581.7896 3455.9307C 1579.4584 3453.5996 1576.2968 3452.29 1573 3452.29z" stroke="none" fill="#A0D5FD" fill-rule="nonzero" fill-opacity="0.4" />
    <path d="M1347.56 3510.3C 1344.2626 3510.2976 1341.0994 3511.6062 1338.7677 3513.938C 1336.436 3516.2695 1335.1273 3519.4326 1335.13 3522.73C 1335.1273 3526.0273 1336.436 3529.1904 1338.7677 3531.522C 1341.0994 3533.8538 1344.2626 3535.1624 1347.56 3535.16L1347.56 3535.16L1484.06 3535.16L1484.06 3510.3L1347.56 3510.3z" stroke="none" fill="#93C74B" fill-rule="nonzero" />
    <path d="M1573 3510.3L1484.09 3510.3L1484.09 3535.1602L1573 3535.1602L1573 3510.3L1484.09 3510.3L1484.09 3535.1602L1573 3535.1602L1573 3510.3L1484.09 3510.3L1484.09 3535.1602L1573 3535.1602L1573 3510.3zM1573 3568.31L1536.38 3568.31L1536.38 3593.1702L1573 3593.1702L1573 3568.31L1536.38 3568.31L1536.38 3593.1702L1573 3593.1702L1573 3568.31L1536.38 3568.31L1536.38 3593.1702L1573 3593.1702z" stroke="none" fill="#A0D5FD" fill-rule="nonzero" fill-opacity="0.4" />
    <path d="M1347.56 3568.31L1536.3501 3568.31L1536.3501 3543.45L1347.56 3568.31zM1820 3452.29L2014.3 3452.29L2014.3 3427.43z" stroke="none" fill="#93C74B" fill-rule="nonzero" />
    <path d="M2045.44 3452.29L2014.3 3452.29L2014.3 3477.1501L2045.4401 3477.1501C 2052.305 3477.15 2057.87 3471.585 2057.87 3464.7202C 2057.87 3461.4233 2056.5605 3458.2617 2054.2295 3455.9307C 2051.8982 3453.5996 2048.7366 3452.29 2045.44 3452.29z" stroke="none" fill="#A0D5FD" fill-rule="nonzero" fill-opacity="0.4" />
    <path d="M1820 3510.3C 1816.7025 3510.2976 1813.5393 3511.6062 1811.2076 3513.938C 1808.876 3516.2695 1807.5673 3519.4326 1807.57 3522.73C 1807.5673 3526.0273 1808.876 3529.1904 1811.2076 3531.522C 1813.5393 3533.8538 1816.7025 3535.1624 1820 3535.16L1820 3535.16L1993.83 3535.16L1993.83 3510.3L1820 3510.3z" stroke="none" fill="#93C74B" fill-rule="nonzero" />
    <path d="M2045.44 3510.3L1993.86 3510.3L1993.86 3535.1602L2045.44 3535.1602L2045.44 3510.3L1993.86 3510.3L1993.86 3535.1602L2045.44 3535.1602L2045.44 3510.3L1993.86 3510.3L1993.86 3535.1602L2045.44 3535.1602L2045.44 3510.3zM2045.44 3568.31L1905.87 3568.31L1905.87 3593.1702L2045.44 3593.1702L2045.44 3568.31L1905.87 3568.31L1905.87 3593.1702L2045.44 3593.1702L2045.44 3568.31L1905.87 3568.31L1905.87 3593.1702L2045.44 3593.1702z" stroke="none" fill="#A0D5FD" fill-rule="nonzero" fill-opacity="0.4" />
    <path d="M1820 3568.31L1905.84 3568.31L1905.84 3543.45L1820 3568.31zM2292.5 3452.29L2471 3452.29L2471 3427.43z" stroke="none" fill="#93C74B" fill-rule="nonzero" />
    <path d="M2517.9 3452.29L2471 3452.29L2471 3477.1501L2517.94 3477.1501C 2521.2383 3477.1526 2524.4026 3475.8442 2526.7358 3473.513C 2529.069 3471.1814 2530.38 3468.0183 2530.38 3464.7202C 2530.3801 3461.4148 2529.0637 3458.2456 2526.7217 3455.913C 2524.38 3453.5806 2521.2053 3452.2769 2517.9 3452.29z" stroke="none" fill="#A0D5FD" fill-rule="nonzero" fill-opacity="0.4" />
    <path d="M2292.5 3510.3C 2289.2026 3510.2976 2286.0396 3511.6062 2283.708 3513.938C 2281.3762 3516.2695 2280.0676 3519.4326 2280.07 3522.73C 2280.0676 3526.0273 2281.3762 3529.1904 2283.708 3531.522C 2286.0396 3533.8538 2289.2026 3535.1624 2292.5 3535.16L2292.5 3535.16L2365.64 3535.16L2365.64 3510.3L2292.5 3510.3z" stroke="none" fill="#93C74B" fill-rule="nonzero" />
    <path d="M2517.9 3510.3L2365.64 3510.3L2365.64 3535.1602L2517.9 3535.1602L2517.9 3510.3L2365.64 3510.3L2365.64 3535.1602L2517.9 3535.1602L2517.9 3510.3L2365.64 3510.3L2365.64 3535.1602L2517.9 3535.1602L2517.9 3510.3zM2517.9 3568.31L2457.4 3568.31L2457.4 3593.1702L2517.9 3593.1702L2517.9 3568.31L2457.4 3568.31L2457.4 3593.1702L2517.9 3593.1702L2517.9 3568.31L2457.4 3568.31L2457.4 3593.1702L2517.9 3593.1702z" stroke="none" fill="#A0D5FD" fill-rule="nonzero" fill-opacity="0.4" />
    <path d="M2292.5 3568.31L2457.4 3568.31L2457.4 3543.45L2292.5 3568.31zM2765 3452.29L2828.08 3452.29L2828.08 3427.43z" stroke="none" fill="#93C74B" fill-rule="nonzero" />
    <path d="M2990.37 3452.29L2828.05 3452.29L2828.05 3477.1501L2990.37 3477.1501C 2993.6685 3477.1526 2996.8328 3475.8442 2999.166 3473.513C 3001.4993 3471.1814 3002.81 3468.0183 3002.81 3464.7202C 3002.81 3461.4219 3001.4993 3458.2585 2999.166 3455.9272C 2996.8328 3453.5957 2993.6685 3452.2874 2990.37 3452.29z" stroke="none" fill="#A0D5FD" fill-rule="nonzero" fill-opacity="0.4" />
    <path d="M2765 3510.3C 2761.7017 3510.2976 2758.5374 3511.606 2756.204 3513.9373C 2753.8708 3516.2688 2752.56 3519.432 2752.56 3522.73C 2752.56 3526.028 2753.8708 3529.1912 2756.204 3531.5227C 2758.5374 3533.854 2761.7017 3535.1624 2765 3535.16L2765 3535.16L2862.94 3535.16L2862.94 3510.3L2765 3510.3z" stroke="none" fill="#93C74B" fill-rule="nonzero" />
    <path d="M2990.37 3510.3L2862.91 3510.3L2862.91 3535.1602L2990.3699 3535.1602L2990.37 3510.3L2862.91 3510.3L2862.91 3535.1602L2990.3699 3535.1602L2990.37 3510.3L2862.91 3510.3L2862.91 3535.1602L2990.3699 3535.1602L2990.37 3510.3zM2990.37 3568.31L2935 3568.31L2935 3593.1702L2990.33 3593.1702L2990.37 3568.31L2935 3568.31L2935 3593.1702L2990.33 3593.1702L2990.37 3568.31L2935 3568.31L2935 3593.1702L2990.33 3593.1702z" stroke="none" fill="#A0D5FD" fill-rule="nonzero" fill-opacity="0.4" />
    <path d="M2765 3568.31L2935 3568.31L2935 3543.45L2765 3568.31zM3008.11 2627.84C 2936.7002 2609.26 2856.2402 2630.75 2803.6 2682.4502C 2764.36 2721.0002 2736.8901 2776.6301 2684.6 2793.6401C 2617.81 2815.35 2543.87 2762.2603 2476.86 2783.28C 2422.6702 2800.28 2394.2102 2858.3901 2350.6501 2894.81C 2305.7502 2932.34 2241.9001 2945.8801 2185.6501 2929.81C 2150.37 2919.74 2118.7102 2899.06 2083.1301 2890.07C 2015.2401 2872.9302 1942.3301 2901.57 1889.4701 2947.49C 1858.3401 2974.49 1832.8601 3006.93 1809.8801 3041.3L1809.8801 3041.3L3008.11 3041.3z" stroke="none" fill="#93C74B" fill-rule="nonzero" />
    <path d="M1712 2651.81C 1711.9917 2705.0925 1674.657 2751.0833 1622.514 2762.0435C 1570.3711 2773.0037 1517.6798 2745.9358 1496.2207 2697.1658C 1474.7617 2648.3955 1490.4033 2591.261 1533.7115 2560.222C 1577.0198 2529.183 1636.1508 2532.7288 1675.44 2568.72C 1698.7891 2590.0288 1712.0645 2620.1995 1712 2651.81z" stroke="none" fill="#FDE81D" fill-rule="nonzero" />
    <path d="M1712 2651.81C 1712.0315 2673.9192 1705.5293 2695.5447 1693.31 2713.97L1693.31 2713.97L1603.31 2650.63L1675.4401 2568.72C 1698.7664 2590.045 1712.037 2620.2053 1712 2651.81z" stroke="none" fill="#19767B" fill-rule="nonzero" />
    <path d="M1712 2931.52C 1711.9657 2990.1206 1666.9867 3038.8967 1608.5809 3043.67C 1550.1752 3048.443 1497.8734 3007.6174 1488.3248 2949.8C 1478.7761 2891.9827 1515.1736 2836.508 1572.0127 2822.2483C 1628.8517 2807.9888 1687.1254 2839.7124 1706 2895.19C 1709.9786 2906.8892 1712.0056 2919.163 1712 2931.52z" stroke="none" fill="#FDE81D" fill-rule="nonzero" />
    <path d="M1706 2895.19L1599.3 2931.52L1643.55 2827.85C 1672.9609 2840.4436 1695.655 2864.9146 1706 2895.19z" stroke="none" fill="#19767B" fill-rule="nonzero" />
    <path d="M1851.65 2847.42C 1851.65 2837.396 1859.776 2829.27 1869.8 2829.27L1869.8 2829.27L1903.2101 2829.27C 1913.234 2829.27 1921.36 2837.396 1921.36 2847.42L1921.36 2847.42L1921.36 2847.43C 1921.36 2857.454 1913.234 2865.58 1903.2101 2865.58L1903.2101 2865.58L1869.8 2865.58C 1859.776 2865.58 1851.65 2857.454 1851.65 2847.43L1851.65 2847.43L1851.65 2847.42z" stroke="none" fill="#19767B" fill-rule="nonzero" />
    <path d="M2332.35 2776.25C 2332.35 2766.226 2340.476 2758.1 2350.5 2758.1L2350.5 2758.1L2383.9102 2758.1C 2393.934 2758.1 2402.06 2766.226 2402.06 2776.25L2402.06 2776.25L2402.06 2776.26C 2402.06 2786.2842 2393.934 2794.4102 2383.9102 2794.4102L2383.9102 2794.4102L2350.5 2794.4102C 2340.476 2794.4102 2332.35 2786.2842 2332.35 2776.26L2332.35 2776.26L2332.35 2776.25z" stroke="none" fill="#19767B" fill-rule="nonzero" />
    <path d="M2727.36 2649.91C 2727.36 2639.886 2735.486 2631.76 2745.51 2631.76L2745.51 2631.76L2778.9202 2631.76C 2788.944 2631.76 2797.07 2639.886 2797.07 2649.91L2797.07 2649.91L2797.07 2649.92C 2797.07 2659.944 2788.944 2668.07 2778.9202 2668.07L2778.9202 2668.07L2745.51 2668.07C 2735.486 2668.07 2727.36 2659.944 2727.36 2649.92L2727.36 2649.92L2727.36 2649.91z" stroke="none" fill="#19767B" fill-rule="nonzero" />
    <path d="M1847.29 3081.96L1960.5701 3081.96L1960.5701 3109.55L1847.29 3109.55z" stroke="none" fill="#93C74B" fill-rule="nonzero" />
    <path d="M2314.92 3081.96L2428.2 3081.96L2428.2 3109.55L2314.92 3109.55z" stroke="none" fill="#93C74B" fill-rule="nonzero" />
    <path d="M2782.55 3081.96L2895.83 3081.96L2895.83 3109.55L2782.55 3109.55z" stroke="none" fill="#93C74B" fill-rule="nonzero" />
    <path d="M2787.6902 2513.55C 2787.6904 2518.0706 2786.092 2521.9292 2782.8955 2525.1255C 2779.6992 2528.322 2775.8406 2529.9204 2771.32 2529.9202C 2766.7996 2529.9204 2762.9412 2528.322 2759.7446 2525.1255C 2756.5483 2521.9292 2754.95 2518.0706 2754.95 2513.55C 2754.95 2509.0295 2756.5483 2505.1711 2759.7446 2501.9746C 2762.9412 2498.7783 2766.7996 2497.18 2771.32 2497.18C 2775.8406 2497.18 2779.6992 2498.7783 2782.8955 2501.9746C 2786.092 2505.1711 2787.6904 2509.0295 2787.6902 2513.55C 2787.6904 2513.7405 2787.687 2513.931 2787.6802 2514.1213" stroke="none" fill="#7FC7FD" fill-rule="nonzero" />
    <path d="M2896.2202 2513.55C 2896.2202 2518.0706 2894.622 2521.9292 2891.4255 2525.1255C 2888.2292 2528.322 2884.3706 2529.9204 2879.85 2529.9202C 2875.3296 2529.9204 2871.4712 2528.322 2868.2747 2525.1255C 2865.0781 2521.9292 2863.48 2518.0706 2863.48 2513.55C 2863.48 2509.0295 2865.0781 2505.1711 2868.2747 2501.9746C 2871.4712 2498.7783 2875.3296 2497.18 2879.85 2497.18C 2884.3706 2497.18 2888.2292 2498.7783 2891.4255 2501.9746C 2894.622 2505.1711 2896.2202 2509.0295 2896.2202 2513.55C 2896.2202 2513.7405 2896.2168 2513.931 2896.2102 2514.1213" stroke="none" fill="#7FC7FD" fill-rule="nonzero" />
    <path d="M3004.7402 2513.55C 3004.7402 2518.0706 3003.142 2521.9292 2999.9456 2525.1255C 2996.7493 2528.322 2992.8906 2529.9204 2988.37 2529.9202C 2983.8496 2529.9204 2979.9912 2528.322 2976.7947 2525.1255C 2973.5981 2521.9292 2972 2518.0706 2972 2513.55C 2972 2509.0295 2973.5981 2505.1711 2976.7947 2501.9746C 2979.9912 2498.7783 2983.8496 2497.18 2988.37 2497.18C 2992.8906 2497.18 2996.7493 2498.7783 2999.9456 2501.9746C 3003.142 2505.1711 3004.7402 2509.0295 3004.7402 2513.55C 3004.7402 2513.7405 3004.7368 2513.931 3004.7302 2514.1213" stroke="none" fill="#7FC7FD" fill-rule="nonzero" />
    <path d="M2531.6602 3284.22C 2531.6602 3317.0286 2520.0605 3345.0325 2496.8613 3368.2314C 2473.6624 3391.4307 2445.6587 3403.0303 2412.85 3403.03C 2380.0417 3403.0303 2352.038 3391.4307 2328.8389 3368.2314C 2305.6396 3345.0325 2294.04 3317.0286 2294.04 3284.22C 2294.04 3251.4116 2305.6396 3223.4077 2328.8389 3200.2085C 2352.038 3177.0098 2380.0417 3165.4102 2412.85 3165.41C 2445.6587 3165.4102 2473.6624 3177.0098 2496.8613 3200.2085C 2520.0605 3223.4077 2531.6602 3251.4116 2531.6602 3284.22C 2531.6602 3285.6025 2531.636 3286.9849 2531.5876 3288.3665" stroke="#93C74B" stroke-width="5.95" fill="#FFFFFF" fill-rule="nonzero" />
    <path d="M2510.09 3284.22C 2510.09 3311.072 2500.5964 3333.9917 2481.6091 3352.979C 2462.6218 3371.9663 2439.7021 3381.46 2412.85 3381.46C 2385.998 3381.46 2363.0784 3371.9663 2344.091 3352.979C 2325.1038 3333.9917 2315.61 3311.072 2315.61 3284.22C 2315.61 3257.368 2325.1038 3234.4482 2344.091 3215.461C 2363.0784 3196.4736 2385.998 3186.98 2412.85 3186.98C 2439.7021 3186.98 2462.6218 3196.4736 2481.6091 3215.461C 2500.5964 3234.4482 2510.09 3257.368 2510.09 3284.22C 2510.09 3285.3516 2510.0703 3286.483 2510.0308 3287.6135" stroke="none" fill="#DAEEFD" fill-rule="nonzero" />
    <path d="M2450 3306.13C 2450.2202 3319.5386 2443.1926 3332.024 2431.6157 3338.7927C 2420.0386 3345.5615 2405.7114 3345.5615 2394.1343 3338.7927C 2382.5574 3332.024 2375.5298 3319.5386 2375.75 3306.13C 2375.75 3285.6199 2412.87 3231.0798 2412.87 3231.0798C 2412.87 3231.0798 2450 3285.62 2450 3306.13z" stroke="none" fill="#75BEE9" fill-rule="nonzero" />
    <path d="M1579.7 3284.22C 1579.7 3317.0286 1568.1005 3345.0325 1544.9014 3368.2314C 1521.7024 3391.4307 1493.6986 3403.0303 1460.89 3403.03C 1428.0815 3403.0303 1400.0778 3391.4307 1376.8787 3368.2314C 1353.6797 3345.0325 1342.0801 3317.0286 1342.0801 3284.22C 1342.0801 3251.4116 1353.6797 3223.4077 1376.8787 3200.2085C 1400.0778 3177.0098 1428.0815 3165.4102 1460.89 3165.41C 1493.6986 3165.4102 1521.7024 3177.0098 1544.9014 3200.2085C 1568.1005 3223.4077 1579.7 3251.4116 1579.7 3284.22C 1579.7 3285.6025 1579.6759 3286.9849 1579.6277 3288.3665" stroke="#93C74B" stroke-width="5.95" fill="#DAEEFD" fill-rule="nonzero" />
    <path d="M1558.13 3284.22C 1558.1301 3311.072 1548.6365 3333.9917 1529.649 3352.979C 1510.6617 3371.9663 1487.7421 3381.46 1460.89 3381.46C 1434.038 3381.46 1411.1183 3371.9663 1392.131 3352.979C 1373.1437 3333.9917 1363.65 3311.072 1363.65 3284.22C 1363.65 3257.368 1373.1437 3234.4482 1392.131 3215.461C 1411.1183 3196.4736 1434.038 3186.98 1460.89 3186.98C 1487.7421 3186.98 1510.6617 3196.4736 1529.649 3215.461C 1548.6365 3234.4482 1558.1301 3257.368 1558.13 3284.22C 1558.1301 3285.3516 1558.1104 3286.483 1558.0708 3287.6135" stroke="none" fill="#FFFFFF" fill-rule="nonzero" />
    <path d="M1485.06 3275.49C 1484.3601 3275.78 1483.6901 3276.09 1483.06 3276.43C 1483.1201 3275.8398 1483.16 3275.23 1483.18 3274.63C 1483.79 3255.47 1463.53 3232.0698 1463.53 3232.0698C 1463.53 3232.0698 1442.29 3254.16 1441.68 3273.3198C 1441.633 3274.9924 1441.7368 3276.6658 1441.9901 3278.3198C 1440.3539 3277.191 1438.6045 3276.2358 1436.7701 3275.4697C 1419.0502 3268.1597 1396.7701 3281.4697 1396.7701 3281.4697C 1396.7701 3281.4697 1403.2201 3306.5798 1420.9402 3313.8896C 1437.4802 3320.7097 1458.0002 3309.5996 1460.6501 3308.0996C 1461.0901 3308.4795 1461.3401 3308.6797 1461.3401 3308.6797L1461.3401 3308.6797L1461.7401 3308.3896C 1465.8901 3310.6597 1485.2001 3320.3896 1500.93 3313.8896C 1518.65 3306.5796 1525.1001 3281.4697 1525.1001 3281.4697C 1525.1001 3281.4697 1502.78 3268.18 1485.06 3275.49z" stroke="none" fill="#75BEE9" fill-rule="nonzero" />
    <path d="M3007.6501 3284.22C 3007.6501 3317.0286 2996.0508 3345.0325 2972.8516 3368.2314C 2949.6523 3391.4307 2921.6487 3403.0303 2888.84 3403.03C 2856.0317 3403.0303 2828.0278 3391.4307 2804.8286 3368.2314C 2781.6296 3345.0325 2770.0303 3317.0286 2770.03 3284.22C 2770.0303 3251.4116 2781.6296 3223.4077 2804.8286 3200.2085C 2828.0278 3177.0098 2856.0317 3165.4102 2888.84 3165.41C 2921.6487 3165.4102 2949.6523 3177.0098 2972.8516 3200.2085C 2996.0508 3223.4077 3007.6501 3251.4116 3007.6501 3284.22C 3007.6501 3285.6025 3007.626 3286.9849 3007.5776 3288.3665" stroke="#93C74B" stroke-width="5.95" fill="#FFFFFF" fill-rule="nonzero" />
    <path d="M2986.08 3284.22C 2986.08 3311.072 2976.5864 3333.9917 2957.599 3352.979C 2938.6118 3371.9663 2915.6921 3381.46 2888.84 3381.46C 2861.988 3381.46 2839.0684 3371.9663 2820.081 3352.979C 2801.0938 3333.9917 2791.6 3311.072 2791.6 3284.22C 2791.6 3257.368 2801.0938 3234.4482 2820.081 3215.461C 2839.0684 3196.4736 2861.988 3186.98 2888.84 3186.98C 2915.6921 3186.98 2938.6118 3196.4736 2957.599 3215.461C 2976.5864 3234.4482 2986.08 3257.368 2986.08 3284.22C 2986.08 3285.3516 2986.0603 3286.483 2986.0208 3287.6135" stroke="none" fill="#DAEEFD" fill-rule="nonzero" />
    <path d="M2882.05 3305L2882.05 3232.38C 2882.0525 3228.75 2880.6123 3225.2678 2878.0466 3222.7002C 2875.481 3220.1326 2871.9998 3218.69 2868.37 3218.69C 2860.8093 3218.69 2854.6802 3224.819 2854.6802 3232.38L2854.6802 3232.38L2854.6802 3305C 2845.036 3311.5215 2841.3303 3323.9407 2845.8245 3334.6804C 2850.3186 3345.4204 2861.765 3351.4993 2873.1794 3349.2083C 2884.5942 3346.9172 2892.808 3336.8923 2892.81 3325.25C 2892.81 3316.85 2888.54 3308.17 2882.05 3305z" stroke="none" fill="#FFFFFF" fill-rule="nonzero" />
    <path d="M2897.82 3258.45C 2897.82 3255.8765 2899.9065 3253.79 2902.48 3253.79L2902.48 3253.79L2929.09 3253.79C 2931.6638 3253.79 2933.75 3255.8765 2933.75 3258.45L2933.75 3258.45L2933.75 3260.49C 2933.75 3263.0637 2931.6638 3265.1501 2929.09 3265.1501L2929.09 3265.1501L2902.48 3265.1501C 2899.9065 3265.1501 2897.82 3263.0637 2897.82 3260.49L2897.82 3260.49L2897.82 3258.45z" stroke="none" fill="#6DBFFD" fill-rule="nonzero" />
    <path d="M2897.82 3283.2C 2897.82 3280.6265 2899.9065 3278.54 2902.48 3278.54L2902.48 3278.54L2929.09 3278.54C 2931.6638 3278.54 2933.75 3280.6265 2933.75 3283.2L2933.75 3283.2L2933.75 3285.24C 2933.75 3287.8137 2931.6638 3289.9001 2929.09 3289.9001L2929.09 3289.9001L2902.48 3289.9001C 2899.9065 3289.9001 2897.82 3287.8137 2897.82 3285.24L2897.82 3285.24L2897.82 3283.2z" stroke="none" fill="#6DBFFD" fill-rule="nonzero" />
    <path d="M2874 3312.4L2874 3282.4L2862.65 3282.4L2862.65 3312.4C 2856.2075 3315.1025 2852.565 3321.9731 2853.9434 3328.8223C 2855.3218 3335.6711 2861.3386 3340.5977 2868.325 3340.5977C 2875.3113 3340.5977 2881.3281 3335.6711 2882.7065 3328.8223C 2884.085 3321.9731 2880.4424 3315.1025 2874 3312.4z" stroke="none" fill="#52A756" fill-rule="nonzero" />
    <path d="M2874 3242.24C 2874.0872 3240.156 2873.025 3238.192 2871.2332 3237.124C 2869.4414 3236.056 2867.2085 3236.056 2865.4167 3237.124C 2863.625 3238.192 2862.5627 3240.156 2862.65 3242.24L2862.65 3242.24L2862.65 3282.3699L2874 3282.3699L2874 3242.24z" stroke="none" fill="#8AC6E9" fill-rule="nonzero" />
    <path d="M2055.68 3284.22C 2055.6802 3317.0286 2044.0806 3345.0325 2020.8813 3368.2314C 1997.6824 3391.4307 1969.6785 3403.0303 1936.87 3403.03C 1904.0615 3403.0303 1876.0579 3391.4307 1852.8586 3368.2314C 1829.6597 3345.0325 1818.06 3317.0286 1818.06 3284.22C 1818.06 3251.4116 1829.6597 3223.4077 1852.8586 3200.2085C 1876.0579 3177.0098 1904.0615 3165.4102 1936.87 3165.41C 1969.6785 3165.4102 1997.6824 3177.0098 2020.8813 3200.2085C 2044.0806 3223.4077 2055.6802 3251.4116 2055.68 3284.22C 2055.6802 3285.6025 2055.656 3286.9849 2055.6077 3288.3665" stroke="#93C74B" stroke-width="5.95" fill="#FFFFFF" fill-rule="nonzero" />
    <path d="M2034.11 3284.22C 2034.1101 3311.072 2024.6165 3333.9917 2005.629 3352.979C 1986.6418 3371.9663 1963.7222 3381.46 1936.87 3381.46C 1910.0181 3381.46 1887.0984 3371.9663 1868.111 3352.979C 1849.1238 3333.9917 1839.6301 3311.072 1839.63 3284.22C 1839.6301 3257.368 1849.1238 3234.4482 1868.111 3215.461C 1887.0984 3196.4736 1910.0181 3186.98 1936.87 3186.98C 1963.7222 3186.98 1986.6418 3196.4736 2005.629 3215.461C 2024.6165 3234.4482 2034.1101 3257.368 2034.11 3284.22C 2034.1101 3285.3516 2034.0903 3286.483 2034.0508 3287.6135" stroke="none" fill="#DAEEFD" fill-rule="nonzero" />
    <path d="M1963.12 3284.22C 1963.1201 3291.4688 1960.5573 3297.656 1955.4315 3302.7815C 1950.3059 3307.9072 1944.1187 3310.47 1936.87 3310.47C 1929.6213 3310.47 1923.4342 3307.9072 1918.3085 3302.7815C 1913.1829 3297.656 1910.6201 3291.4688 1910.62 3284.22C 1910.6201 3276.9714 1913.1829 3270.7842 1918.3085 3265.6584C 1923.4342 3260.5327 1929.6213 3257.97 1936.87 3257.97C 1944.1187 3257.97 1950.3059 3260.5327 1955.4315 3265.6584C 1960.5573 3270.7842 1963.1201 3276.9714 1963.12 3284.22C 1963.1201 3284.5256 1963.1147 3284.831 1963.104 3285.136" stroke="none" fill="#FE4775" fill-rule="nonzero" />
    <path d="M1966.72 3256.75L1976.23 3247.24C 1978.7999 3244.68 1974.8099 3240.69 1972.23 3243.24L1972.23 3243.24L1962.73 3252.75C 1960.17 3255.33 1964.15 3259.32 1966.72 3256.75zM1949 3245.53L1952.48 3232.53C 1953.4199 3229.02 1947.99 3227.53 1947.0499 3231.03L1947.0499 3231.03L1943.57 3244.03C 1942.61 3247.54 1948 3249 1949 3245.53zM1922.57 3246.12C 1923.5099 3249.62 1928.95 3248.12 1928 3244.62L1928 3244.62L1924.52 3231.62C 1923.59 3228.12 1918.15 3229.62 1919.09 3233.12zM1905.42 3258.36C 1907.99 3260.9302 1911.9701 3256.9402 1909.42 3254.36L1909.42 3254.36L1899.91 3244.86C 1897.3401 3242.29 1893.35 3246.27 1895.91 3248.86zM1883.7 3274.06L1896.7 3277.54C 1900.21 3278.48 1901.7 3273.05 1898.2 3272.11L1898.2 3272.11L1885.2 3268.6301C 1881.69 3267.69 1880.19 3273.13 1883.7 3274.06zM1897.27 3293.09L1884.27 3296.57C 1880.77 3297.51 1882.27 3302.9402 1885.76 3302L1885.76 3302L1898.76 3298.52C 1902.27 3297.58 1900.79 3292.15 1897.27 3293.09zM1907 3311.69L1897.49 3321.19C 1894.92 3323.76 1898.91 3327.75 1901.49 3325.19L1901.49 3325.19L1910.99 3315.68C 1913.58 3313.1 1909.6 3309.12 1907 3311.69zM1924.77 3322.91L1921.29 3335.91C 1920.3501 3339.41 1925.78 3340.91 1926.7201 3337.41L1926.7201 3337.41L1930.2001 3324.41C 1931.14 3320.9 1925.7 3319.4 1924.77 3322.91zM1951.18 3322.32C 1950.2401 3318.82 1944.8 3320.32 1945.7401 3323.82L1945.7401 3323.82L1949.2201 3336.82C 1950.16 3340.32 1955.6001 3338.82 1954.66 3335.32zM1968.33 3310.08C 1965.76 3307.51 1961.7699 3311.5 1964.33 3314.08L1964.33 3314.08L1973.84 3323.59C 1976.4099 3326.1602 1980.39 3322.1802 1977.84 3319.59zM1990.05 3294.37L1977.05 3290.8901C 1973.55 3289.9502 1972.05 3295.3901 1975.56 3296.33L1975.56 3296.33L1988.56 3299.81C 1992.06 3300.75 1993.56 3295.31 1990.05 3294.37zM1976.48 3275.35L1989.48 3271.87C 1992.98 3270.9302 1991.48 3265.4902 1987.98 3266.4402L1987.98 3266.4402L1974.98 3269.9102C 1971.48 3270.85 1973 3276.29 1976.48 3275.35z" stroke="none" fill="#FE4775" fill-rule="nonzero" />
    <path d="M1346.26 2735.3599C 1346.26 2725.7336 1354.0637 2717.93 1363.6901 2717.93L1363.6901 2717.93L1445.01 2717.93C 1454.6364 2717.93 1462.4401 2725.7336 1462.4401 2735.3599L1462.4401 2735.3599L1462.4401 2735.3499C 1462.4401 2744.9763 1454.6364 2752.78 1445.01 2752.78L1445.01 2752.78L1363.6901 2752.78C 1354.0637 2752.78 1346.26 2744.9763 1346.26 2735.3499L1346.26 2735.3499L1346.26 2735.3599z" stroke="none" fill="#19767B" fill-rule="nonzero" />
    <path d="M1346.26 3020.64C 1346.26 3011.0137 1354.0637 3003.21 1363.6901 3003.21L1363.6901 3003.21L1445.01 3003.21C 1454.6364 3003.21 1462.4401 3011.0137 1462.4401 3020.64L1462.4401 3020.64L1462.4401 3020.63C 1462.4401 3030.2563 1454.6364 3038.06 1445.01 3038.06L1445.01 3038.06L1363.6901 3038.06C 1354.0637 3038.06 1346.26 3030.2563 1346.26 3020.63L1346.26 3020.63L1346.26 3020.64z" stroke="none" fill="#19767B" fill-rule="nonzero" />
</g>
</svg>